<svg width="32" height="32" viewBox="0 0 32 32" fill="none" xmlns="http://www.w3.org/2000/svg">
<circle cx="16" cy="16" r="16" fill="#F6F6F6"/>
<path d="M10.3036 18.6448L13.7011 22.0423C15.0961 23.4373 17.3611 23.4373 18.7636 22.0423L22.0561 18.7498C23.4511 17.3548 23.4511 15.0898 22.0561 13.6873L18.6511 10.2973C17.9386 9.58478 16.9561 9.20228 15.9511 9.25478L12.2011 9.43478C10.7011 9.50228 9.50857 10.6948 9.43357 12.1873L9.25357 15.9373C9.20857 16.9498 9.59107 17.9323 10.3036 18.6448Z" stroke="#4F4F4F" stroke-width="1.5" stroke-linecap="round" stroke-linejoin="round"/>
<path d="M14.301 16.1698C15.3366 16.1698 16.176 15.3303 16.176 14.2948C16.176 13.2593 15.3366 12.4198 14.301 12.4198C13.2655 12.4198 12.426 13.2593 12.426 14.2948C12.426 15.3303 13.2655 16.1698 14.301 16.1698Z" stroke="#4F4F4F" stroke-width="1.5" stroke-linecap="round"/>
<path d="M16.926 19.9198L19.926 16.9198" stroke="#4F4F4F" stroke-width="1.5" stroke-miterlimit="10" stroke-linecap="round" stroke-linejoin="round"/>
</svg>
