<svg width="32" height="32" viewBox="0 0 32 32" fill="none" xmlns="http://www.w3.org/2000/svg">
<circle cx="16" cy="16" r="16" fill="#F6F6F6"/>
<path d="M22 12.28V19.72C22 20.86 21.895 21.67 21.625 22.2475C21.625 22.255 21.6175 22.27 21.61 22.2775C21.445 22.4875 21.2275 22.5925 20.9725 22.5925C20.575 22.5925 20.095 22.33 19.5775 21.775C18.9625 21.115 18.0175 21.1675 17.4775 21.8875L16.72 22.8925C16.42 23.2975 16.0225 23.5 15.625 23.5C15.2275 23.5 14.83 23.2975 14.53 22.8925L13.765 21.88C13.2325 21.1675 12.295 21.115 11.68 21.7675L11.6725 21.775C10.825 22.6825 10.075 22.8175 9.64001 22.2775C9.63251 22.27 9.625 22.255 9.625 22.2475C9.355 21.67 9.25 20.86 9.25 19.72V12.28C9.25 11.14 9.355 10.33 9.625 9.7525C9.625 9.745 9.62501 9.7375 9.64001 9.73C10.0675 9.1825 10.825 9.3175 11.6725 10.225L11.68 10.2325C12.295 10.885 13.2325 10.8325 13.765 10.12L14.53 9.1075C14.83 8.7025 15.2275 8.5 15.625 8.5C16.0225 8.5 16.42 8.7025 16.72 9.1075L17.4775 10.1125C18.0175 10.8325 18.9625 10.885 19.5775 10.225C20.095 9.67 20.575 9.4075 20.9725 9.4075C21.2275 9.4075 21.445 9.52 21.61 9.73C21.625 9.7375 21.625 9.745 21.625 9.7525C21.895 10.33 22 11.14 22 12.28Z" stroke="#4F4F4F" stroke-width="1.5" stroke-linecap="round" stroke-linejoin="round"/>
<path d="M13 14.6875H19" stroke="#4F4F4F" stroke-width="1.5" stroke-linecap="round" stroke-linejoin="round"/>
<path d="M13 17.3125H17.5" stroke="#4F4F4F" stroke-width="1.5" stroke-linecap="round" stroke-linejoin="round"/>
</svg>
