<svg width="30" height="30" viewBox="0 0 30 30" fill="none" xmlns="http://www.w3.org/2000/svg">
<path d="M25 8.8V21.2C25 23.1 24.825 24.45 24.375 25.4125C24.375 25.425 24.3625 25.45 24.35 25.4625C24.075 25.8125 23.7125 25.9875 23.2875 25.9875C22.625 25.9875 21.825 25.55 20.9625 24.625C19.9375 23.525 18.3625 23.6125 17.4625 24.8125L16.2 26.4875C15.7 27.1625 15.0375 27.5 14.375 27.5C13.7125 27.5 13.05 27.1625 12.55 26.4875L11.275 24.8C10.3875 23.6125 8.82499 23.525 7.79999 24.6125L7.78748 24.625C6.37498 26.1375 5.12502 26.3625 4.40002 25.4625C4.38752 25.45 4.375 25.425 4.375 25.4125C3.925 24.45 3.75 23.1 3.75 21.2V8.8C3.75 6.9 3.925 5.55 4.375 4.5875C4.375 4.575 4.37502 4.5625 4.40002 4.55C5.11252 3.6375 6.37498 3.8625 7.78748 5.375L7.79999 5.3875C8.82499 6.475 10.3875 6.3875 11.275 5.2L12.55 3.5125C13.05 2.8375 13.7125 2.5 14.375 2.5C15.0375 2.5 15.7 2.8375 16.2 3.5125L17.4625 5.1875C18.3625 6.3875 19.9375 6.475 20.9625 5.375C21.825 4.45 22.625 4.0125 23.2875 4.0125C23.7125 4.0125 24.075 4.2 24.35 4.55C24.375 4.5625 24.375 4.575 24.375 4.5875C24.825 5.55 25 6.9 25 8.8Z" stroke="#15BE30" stroke-width="1.5" stroke-linecap="round" stroke-linejoin="round"/>
<path d="M10 12.8125H20" stroke="#15BE30" stroke-width="1.5" stroke-linecap="round" stroke-linejoin="round"/>
<path d="M10 17.1875H17.5" stroke="#15BE30" stroke-width="1.5" stroke-linecap="round" stroke-linejoin="round"/>
</svg>
