<svg width="700" height="345" viewBox="0 0 700 345" fill="none" xmlns="http://www.w3.org/2000/svg">
<rect width="700" height="345" rx="8" fill="#0066FF" fill-opacity="0.08"/>
<line x1="36" y1="311.5" x2="667" y2="311.5" stroke="#1655B4" stroke-opacity="0.28"/>
<line x1="36" y1="283.65" x2="667" y2="283.65" stroke="#1655B4" stroke-opacity="0.28" stroke-width="0.7"/>
<line x1="36" y1="255.65" x2="667" y2="255.65" stroke="#1655B4" stroke-opacity="0.28" stroke-width="0.7"/>
<line x1="36" y1="227.65" x2="667" y2="227.65" stroke="#1655B4" stroke-opacity="0.28" stroke-width="0.7"/>
<line x1="36" y1="199.65" x2="667" y2="199.65" stroke="#1655B4" stroke-opacity="0.28" stroke-width="0.7"/>
<line x1="36" y1="171.65" x2="667" y2="171.65" stroke="#1655B4" stroke-opacity="0.28" stroke-width="0.7"/>
<line x1="36" y1="143.65" x2="667" y2="143.65" stroke="#1655B4" stroke-opacity="0.28" stroke-width="0.7"/>
<line x1="36" y1="115.65" x2="667" y2="115.65" stroke="#1655B4" stroke-opacity="0.28" stroke-width="0.7"/>
<line x1="36" y1="87.65" x2="667" y2="87.65" stroke="#1655B4" stroke-opacity="0.28" stroke-width="0.7"/>
<line x1="36" y1="59.65" x2="667" y2="59.65" stroke="#1655B4" stroke-opacity="0.28" stroke-width="0.7"/>
<path d="M36 211.139C48.0426 233.927 85.4902 278.105 138.94 272.516C205.751 265.53 270.154 38.487 389.855 38.487C457.656 38.487 483.355 112.837 550.203 112.837C615.53 112.837 650.173 56.1181 667 32" stroke="#15BE30" stroke-width="5"/>
<path opacity="0.32" d="M138.94 272.516C85.4902 278.105 48.0426 233.927 36 211.139V314H667V32C650.173 56.1181 615.53 112.837 550.203 112.837C483.355 112.837 457.656 38.487 389.855 38.487C270.154 38.487 205.751 265.53 138.94 272.516Z" fill="url(#paint0_linear_0_1)"/>
<path d="M43.5689 328.455H45.2756L47.0781 332.852H47.1548L48.9574 328.455H50.6641V335H49.3217V330.74H49.2674L47.5735 334.968H46.6594L44.9656 330.724H44.9112V335H43.5689V328.455ZM57.7202 331.727C57.7202 332.441 57.5849 333.048 57.3143 333.549C57.0458 334.05 56.6793 334.432 56.2148 334.696C55.7525 334.958 55.2326 335.089 54.6552 335.089C54.0735 335.089 53.5515 334.957 53.0891 334.693C52.6268 334.429 52.2614 334.047 51.9929 333.546C51.7244 333.045 51.5902 332.439 51.5902 331.727C51.5902 331.013 51.7244 330.406 51.9929 329.906C52.2614 329.405 52.6268 329.023 53.0891 328.761C53.5515 328.497 54.0735 328.365 54.6552 328.365C55.2326 328.365 55.7525 328.497 56.2148 328.761C56.6793 329.023 57.0458 329.405 57.3143 329.906C57.5849 330.406 57.7202 331.013 57.7202 331.727ZM56.3171 331.727C56.3171 331.265 56.2479 330.875 56.1094 330.558C55.973 330.24 55.7802 329.999 55.5309 329.835C55.2816 329.671 54.9897 329.589 54.6552 329.589C54.3207 329.589 54.0288 329.671 53.7795 329.835C53.5302 329.999 53.3363 330.24 53.1978 330.558C53.0614 330.875 52.9932 331.265 52.9932 331.727C52.9932 332.19 53.0614 332.58 53.1978 332.897C53.3363 333.214 53.5302 333.455 53.7795 333.619C54.0288 333.783 54.3207 333.865 54.6552 333.865C54.9897 333.865 55.2816 333.783 55.5309 333.619C55.7802 333.455 55.973 333.214 56.1094 332.897C56.2479 332.58 56.3171 332.19 56.3171 331.727ZM64.1211 328.455V335H62.9258L60.0781 330.88H60.0302V335H58.6463V328.455H59.8608L62.6861 332.571H62.7436V328.455H64.1211Z" fill="#344661" fill-opacity="0.9"/>
<path d="M91.3196 329.596V328.455H96.6953V329.596H94.6914V335H93.3235V329.596H91.3196ZM101.525 328.455H102.908V332.705C102.908 333.183 102.794 333.6 102.566 333.958C102.341 334.316 102.024 334.595 101.617 334.795C101.21 334.994 100.736 335.093 100.195 335.093C99.6517 335.093 99.1766 334.994 98.7696 334.795C98.3626 334.595 98.0462 334.316 97.8204 333.958C97.5945 333.6 97.4816 333.183 97.4816 332.705V328.455H98.8655V332.587C98.8655 332.836 98.9198 333.058 99.0285 333.252C99.1393 333.446 99.2948 333.598 99.4951 333.709C99.6954 333.82 99.9287 333.875 100.195 333.875C100.464 333.875 100.697 333.82 100.895 333.709C101.095 333.598 101.25 333.446 101.358 333.252C101.469 333.058 101.525 332.836 101.525 332.587V328.455ZM103.948 335V328.455H108.359V329.596H105.332V331.155H108.132V332.296H105.332V333.859H108.371V335H103.948ZM112.911 330.337C112.885 330.079 112.775 329.879 112.581 329.736C112.387 329.593 112.124 329.522 111.792 329.522C111.566 329.522 111.375 329.554 111.22 329.618C111.064 329.68 110.945 329.766 110.862 329.877C110.781 329.988 110.74 330.113 110.74 330.254C110.736 330.371 110.761 330.473 110.814 330.561C110.869 330.648 110.945 330.724 111.041 330.788C111.137 330.849 111.248 330.904 111.373 330.951C111.499 330.995 111.633 331.034 111.776 331.066L112.364 331.206C112.65 331.27 112.912 331.355 113.15 331.462C113.389 331.569 113.596 331.7 113.77 331.855C113.945 332.011 114.08 332.194 114.176 332.405C114.274 332.616 114.324 332.858 114.326 333.13C114.324 333.531 114.222 333.878 114.02 334.172C113.819 334.464 113.53 334.691 113.15 334.853C112.773 335.013 112.318 335.093 111.786 335.093C111.257 335.093 110.797 335.012 110.405 334.85C110.015 334.688 109.71 334.448 109.491 334.131C109.273 333.811 109.159 333.416 109.149 332.945H110.488C110.503 333.164 110.566 333.348 110.677 333.495C110.789 333.64 110.94 333.749 111.127 333.824C111.317 333.896 111.531 333.933 111.77 333.933C112.004 333.933 112.207 333.898 112.38 333.83C112.555 333.762 112.69 333.667 112.786 333.546C112.882 333.424 112.93 333.285 112.93 333.127C112.93 332.98 112.886 332.857 112.799 332.756C112.713 332.656 112.588 332.571 112.422 332.501C112.258 332.43 112.056 332.366 111.818 332.309L111.105 332.13C110.553 331.996 110.117 331.786 109.798 331.5C109.478 331.215 109.319 330.83 109.321 330.347C109.319 329.95 109.425 329.604 109.638 329.308C109.853 329.012 110.148 328.781 110.523 328.614C110.898 328.448 111.324 328.365 111.802 328.365C112.287 328.365 112.711 328.448 113.074 328.614C113.438 328.781 113.721 329.012 113.924 329.308C114.126 329.604 114.231 329.947 114.237 330.337H112.911Z" fill="#344661" fill-opacity="0.9"/>
<path d="M143.042 335L141.169 328.455H142.681L143.765 333.002H143.819L145.014 328.455H146.309L147.501 333.012H147.558L148.642 328.455H150.153L148.281 335H146.932L145.685 330.721H145.634L144.391 335H143.042ZM150.795 335V328.455H155.206V329.596H152.179V331.155H154.979V332.296H152.179V333.859H155.218V335H150.795ZM158.527 335H156.207V328.455H158.546C159.205 328.455 159.771 328.586 160.247 328.848C160.722 329.108 161.087 329.482 161.343 329.969C161.601 330.457 161.73 331.041 161.73 331.721C161.73 332.403 161.601 332.989 161.343 333.479C161.087 333.969 160.72 334.345 160.24 334.607C159.763 334.869 159.192 335 158.527 335ZM157.591 333.814H158.47C158.879 333.814 159.223 333.742 159.502 333.597C159.783 333.45 159.994 333.223 160.135 332.916C160.277 332.607 160.349 332.209 160.349 331.721C160.349 331.237 160.277 330.842 160.135 330.535C159.994 330.228 159.784 330.002 159.505 329.858C159.226 329.713 158.882 329.64 158.473 329.64H157.591V333.814Z" fill="#344661" fill-opacity="0.9"/>
<path d="M189.32 329.596V328.455H194.695V329.596H192.691V335H191.324V329.596H189.32ZM195.482 335V328.455H196.865V331.155H199.675V328.455H201.055V335H199.675V332.296H196.865V335H195.482ZM206.14 328.455H207.524V332.705C207.524 333.183 207.41 333.6 207.182 333.958C206.956 334.316 206.64 334.595 206.233 334.795C205.826 334.994 205.352 335.093 204.811 335.093C204.268 335.093 203.792 334.994 203.385 334.795C202.978 334.595 202.662 334.316 202.436 333.958C202.21 333.6 202.097 333.183 202.097 332.705V328.455H203.481V332.587C203.481 332.836 203.536 333.058 203.644 333.252C203.755 333.446 203.911 333.598 204.111 333.709C204.311 333.82 204.545 333.875 204.811 333.875C205.079 333.875 205.313 333.82 205.511 333.709C205.711 333.598 205.866 333.446 205.974 333.252C206.085 333.058 206.14 332.836 206.14 332.587V328.455Z" fill="#344661" fill-opacity="0.9"/>
<path d="M235.569 335V328.455H239.903V329.596H236.953V331.155H239.615V332.296H236.953V335H235.569ZM240.735 335V328.455H243.317C243.811 328.455 244.233 328.543 244.583 328.72C244.934 328.895 245.202 329.143 245.385 329.464C245.57 329.784 245.663 330.16 245.663 330.593C245.663 331.027 245.569 331.401 245.382 331.714C245.194 332.026 244.922 332.264 244.567 332.43C244.213 332.597 243.785 332.68 243.282 332.68H241.553V331.567H243.058C243.322 331.567 243.542 331.531 243.716 331.459C243.891 331.386 244.021 331.278 244.106 331.133C244.194 330.988 244.237 330.808 244.237 330.593C244.237 330.375 244.194 330.192 244.106 330.043C244.021 329.894 243.89 329.781 243.713 329.704C243.539 329.625 243.318 329.586 243.052 329.586H242.118V335H240.735ZM244.269 332.021L245.896 335H244.368L242.777 332.021H244.269ZM247.926 328.455V335H246.542V328.455H247.926Z" fill="#344661" fill-opacity="0.9"/>
<path d="M279.12 330.337C279.094 330.079 278.984 329.879 278.79 329.736C278.597 329.593 278.333 329.522 278.001 329.522C277.775 329.522 277.585 329.554 277.429 329.618C277.273 329.68 277.154 329.766 277.071 329.877C276.99 329.988 276.95 330.113 276.95 330.254C276.945 330.371 276.97 330.473 277.023 330.561C277.078 330.648 277.154 330.724 277.25 330.788C277.346 330.849 277.457 330.904 277.582 330.951C277.708 330.995 277.842 331.034 277.985 331.066L278.573 331.206C278.859 331.27 279.121 331.355 279.359 331.462C279.598 331.569 279.805 331.7 279.979 331.855C280.154 332.011 280.289 332.194 280.385 332.405C280.483 332.616 280.533 332.858 280.536 333.13C280.533 333.531 280.431 333.878 280.229 334.172C280.028 334.464 279.739 334.691 279.359 334.853C278.982 335.013 278.527 335.093 277.995 335.093C277.466 335.093 277.006 335.012 276.614 334.85C276.224 334.688 275.919 334.448 275.7 334.131C275.483 333.811 275.369 333.416 275.358 332.945H276.697C276.712 333.164 276.775 333.348 276.886 333.495C276.999 333.64 277.149 333.749 277.336 333.824C277.526 333.896 277.74 333.933 277.979 333.933C278.213 333.933 278.417 333.898 278.589 333.83C278.764 333.762 278.899 333.667 278.995 333.546C279.091 333.424 279.139 333.285 279.139 333.127C279.139 332.98 279.095 332.857 279.008 332.756C278.923 332.656 278.797 332.571 278.631 332.501C278.467 332.43 278.265 332.366 278.027 332.309L277.314 332.13C276.762 331.996 276.326 331.786 276.007 331.5C275.687 331.215 275.528 330.83 275.531 330.347C275.528 329.95 275.634 329.604 275.847 329.308C276.062 329.012 276.357 328.781 276.732 328.614C277.107 328.448 277.533 328.365 278.011 328.365C278.496 328.365 278.92 328.448 279.283 328.614C279.647 328.781 279.93 329.012 280.133 329.308C280.335 329.604 280.44 329.947 280.446 330.337H279.12ZM282.346 335H280.863L283.123 328.455H284.906L287.163 335H285.68L284.04 329.95H283.989L282.346 335ZM282.253 332.427H285.756V333.507H282.253V332.427ZM286.802 329.596V328.455H292.178V329.596H290.174V335H288.806V329.596H286.802Z" fill="#344661" fill-opacity="0.9"/>
<path d="M323.12 330.337C323.094 330.079 322.984 329.879 322.79 329.736C322.597 329.593 322.333 329.522 322.001 329.522C321.775 329.522 321.585 329.554 321.429 329.618C321.273 329.68 321.154 329.766 321.071 329.877C320.99 329.988 320.95 330.113 320.95 330.254C320.945 330.371 320.97 330.473 321.023 330.561C321.078 330.648 321.154 330.724 321.25 330.788C321.346 330.849 321.457 330.904 321.582 330.951C321.708 330.995 321.842 331.034 321.985 331.066L322.573 331.206C322.859 331.27 323.121 331.355 323.359 331.462C323.598 331.569 323.805 331.7 323.979 331.855C324.154 332.011 324.289 332.194 324.385 332.405C324.483 332.616 324.533 332.858 324.536 333.13C324.533 333.531 324.431 333.878 324.229 334.172C324.028 334.464 323.739 334.691 323.359 334.853C322.982 335.013 322.527 335.093 321.995 335.093C321.466 335.093 321.006 335.012 320.614 334.85C320.224 334.688 319.919 334.448 319.7 334.131C319.483 333.811 319.369 333.416 319.358 332.945H320.697C320.712 333.164 320.775 333.348 320.886 333.495C320.999 333.64 321.149 333.749 321.336 333.824C321.526 333.896 321.74 333.933 321.979 333.933C322.213 333.933 322.417 333.898 322.589 333.83C322.764 333.762 322.899 333.667 322.995 333.546C323.091 333.424 323.139 333.285 323.139 333.127C323.139 332.98 323.095 332.857 323.008 332.756C322.923 332.656 322.797 332.571 322.631 332.501C322.467 332.43 322.265 332.366 322.027 332.309L321.314 332.13C320.762 331.996 320.326 331.786 320.007 331.5C319.687 331.215 319.528 330.83 319.531 330.347C319.528 329.95 319.634 329.604 319.847 329.308C320.062 329.012 320.357 328.781 320.732 328.614C321.107 328.448 321.533 328.365 322.011 328.365C322.496 328.365 322.92 328.448 323.283 328.614C323.647 328.781 323.93 329.012 324.133 329.308C324.335 329.604 324.44 329.947 324.446 330.337H323.12ZM329.41 328.455H330.794V332.705C330.794 333.183 330.68 333.6 330.452 333.958C330.226 334.316 329.91 334.595 329.503 334.795C329.096 334.994 328.622 335.093 328.081 335.093C327.537 335.093 327.062 334.994 326.655 334.795C326.248 334.595 325.932 334.316 325.706 333.958C325.48 333.6 325.367 333.183 325.367 332.705V328.455H326.751V332.587C326.751 332.836 326.806 333.058 326.914 333.252C327.025 333.446 327.181 333.598 327.381 333.709C327.581 333.82 327.814 333.875 328.081 333.875C328.349 333.875 328.583 333.82 328.781 333.709C328.981 333.598 329.135 333.446 329.244 333.252C329.355 333.058 329.41 332.836 329.41 332.587V328.455ZM337.309 328.455V335H336.113L333.266 330.88H333.218V335H331.834V328.455H333.048L335.874 332.571H335.931V328.455H337.309Z" fill="#344661" fill-opacity="0.9"/>
<path d="M364.569 328.455H366.276L368.078 332.852H368.155L369.957 328.455H371.664V335H370.322V330.74H370.267L368.574 334.968H367.659L365.966 330.724H365.911V335H364.569V328.455ZM378.72 331.727C378.72 332.441 378.585 333.048 378.314 333.549C378.046 334.05 377.679 334.432 377.215 334.696C376.752 334.958 376.233 335.089 375.655 335.089C375.073 335.089 374.551 334.957 374.089 334.693C373.627 334.429 373.261 334.047 372.993 333.546C372.724 333.045 372.59 332.439 372.59 331.727C372.59 331.013 372.724 330.406 372.993 329.906C373.261 329.405 373.627 329.023 374.089 328.761C374.551 328.497 375.073 328.365 375.655 328.365C376.233 328.365 376.752 328.497 377.215 328.761C377.679 329.023 378.046 329.405 378.314 329.906C378.585 330.406 378.72 331.013 378.72 331.727ZM377.317 331.727C377.317 331.265 377.248 330.875 377.109 330.558C376.973 330.24 376.78 329.999 376.531 329.835C376.282 329.671 375.99 329.589 375.655 329.589C375.321 329.589 375.029 329.671 374.779 329.835C374.53 329.999 374.336 330.24 374.198 330.558C374.061 330.875 373.993 331.265 373.993 331.727C373.993 332.19 374.061 332.58 374.198 332.897C374.336 333.214 374.53 333.455 374.779 333.619C375.029 333.783 375.321 333.865 375.655 333.865C375.99 333.865 376.282 333.783 376.531 333.619C376.78 333.455 376.973 333.214 377.109 332.897C377.248 332.58 377.317 332.19 377.317 331.727ZM385.121 328.455V335H383.926L381.078 330.88H381.03V335H379.646V328.455H380.861L383.686 332.571H383.744V328.455H385.121Z" fill="#344661" fill-opacity="0.9"/>
<path d="M412.32 329.596V328.455H417.695V329.596H415.691V335H414.324V329.596H412.32ZM422.525 328.455H423.908V332.705C423.908 333.183 423.794 333.6 423.566 333.958C423.341 334.316 423.024 334.595 422.617 334.795C422.21 334.994 421.736 335.093 421.195 335.093C420.652 335.093 420.177 334.994 419.77 334.795C419.363 334.595 419.046 334.316 418.82 333.958C418.595 333.6 418.482 333.183 418.482 332.705V328.455H419.865V332.587C419.865 332.836 419.92 333.058 420.028 333.252C420.139 333.446 420.295 333.598 420.495 333.709C420.695 333.82 420.929 333.875 421.195 333.875C421.464 333.875 421.697 333.82 421.895 333.709C422.095 333.598 422.25 333.446 422.358 333.252C422.469 333.058 422.525 332.836 422.525 332.587V328.455ZM424.948 335V328.455H429.359V329.596H426.332V331.155H429.132V332.296H426.332V333.859H429.371V335H424.948ZM433.911 330.337C433.885 330.079 433.775 329.879 433.581 329.736C433.387 329.593 433.124 329.522 432.792 329.522C432.566 329.522 432.375 329.554 432.22 329.618C432.064 329.68 431.945 329.766 431.862 329.877C431.781 329.988 431.74 330.113 431.74 330.254C431.736 330.371 431.761 330.473 431.814 330.561C431.869 330.648 431.945 330.724 432.041 330.788C432.137 330.849 432.248 330.904 432.373 330.951C432.499 330.995 432.633 331.034 432.776 331.066L433.364 331.206C433.65 331.27 433.912 331.355 434.15 331.462C434.389 331.569 434.596 331.7 434.77 331.855C434.945 332.011 435.08 332.194 435.176 332.405C435.274 332.616 435.324 332.858 435.326 333.13C435.324 333.531 435.222 333.878 435.02 334.172C434.819 334.464 434.53 334.691 434.15 334.853C433.773 335.013 433.318 335.093 432.786 335.093C432.257 335.093 431.797 335.012 431.405 334.85C431.015 334.688 430.71 334.448 430.491 334.131C430.273 333.811 430.159 333.416 430.149 332.945H431.488C431.503 333.164 431.566 333.348 431.677 333.495C431.789 333.64 431.94 333.749 432.127 333.824C432.317 333.896 432.531 333.933 432.77 333.933C433.004 333.933 433.207 333.898 433.38 333.83C433.555 333.762 433.69 333.667 433.786 333.546C433.882 333.424 433.93 333.285 433.93 333.127C433.93 332.98 433.886 332.857 433.799 332.756C433.713 332.656 433.588 332.571 433.422 332.501C433.258 332.43 433.056 332.366 432.818 332.309L432.105 332.13C431.553 331.996 431.117 331.786 430.798 331.5C430.478 331.215 430.319 330.83 430.321 330.347C430.319 329.95 430.425 329.604 430.638 329.308C430.853 329.012 431.148 328.781 431.523 328.614C431.898 328.448 432.324 328.365 432.802 328.365C433.287 328.365 433.711 328.448 434.074 328.614C434.438 328.781 434.721 329.012 434.924 329.308C435.126 329.604 435.231 329.947 435.237 330.337H433.911Z" fill="#344661" fill-opacity="0.9"/>
<path d="M464.042 335L462.169 328.455H463.681L464.765 333.002H464.819L466.014 328.455H467.309L468.501 333.012H468.558L469.642 328.455H471.153L469.281 335H467.932L466.685 330.721H466.634L465.391 335H464.042ZM471.795 335V328.455H476.206V329.596H473.179V331.155H475.979V332.296H473.179V333.859H476.218V335H471.795ZM479.527 335H477.207V328.455H479.546C480.205 328.455 480.771 328.586 481.247 328.848C481.722 329.108 482.087 329.482 482.343 329.969C482.601 330.457 482.73 331.041 482.73 331.721C482.73 332.403 482.601 332.989 482.343 333.479C482.087 333.969 481.72 334.345 481.24 334.607C480.763 334.869 480.192 335 479.527 335ZM478.591 333.814H479.47C479.879 333.814 480.223 333.742 480.502 333.597C480.783 333.45 480.994 333.223 481.135 332.916C481.277 332.607 481.349 332.209 481.349 331.721C481.349 331.237 481.277 330.842 481.135 330.535C480.994 330.228 480.784 330.002 480.505 329.858C480.226 329.713 479.882 329.64 479.473 329.64H478.591V333.814Z" fill="#344661" fill-opacity="0.9"/>
<path d="M510.32 329.596V328.455H515.695V329.596H513.691V335H512.324V329.596H510.32ZM516.482 335V328.455H517.865V331.155H520.675V328.455H522.055V335H520.675V332.296H517.865V335H516.482ZM527.14 328.455H528.524V332.705C528.524 333.183 528.41 333.6 528.182 333.958C527.956 334.316 527.64 334.595 527.233 334.795C526.826 334.994 526.352 335.093 525.811 335.093C525.268 335.093 524.792 334.994 524.385 334.795C523.978 334.595 523.662 334.316 523.436 333.958C523.21 333.6 523.097 333.183 523.097 332.705V328.455H524.481V332.587C524.481 332.836 524.536 333.058 524.644 333.252C524.755 333.446 524.911 333.598 525.111 333.709C525.311 333.82 525.545 333.875 525.811 333.875C526.079 333.875 526.313 333.82 526.511 333.709C526.711 333.598 526.866 333.446 526.974 333.252C527.085 333.058 527.14 332.836 527.14 332.587V328.455Z" fill="#344661" fill-opacity="0.9"/>
<path d="M556.569 335V328.455H560.903V329.596H557.953V331.155H560.615V332.296H557.953V335H556.569ZM561.735 335V328.455H564.317C564.811 328.455 565.233 328.543 565.583 328.72C565.934 328.895 566.202 329.143 566.385 329.464C566.57 329.784 566.663 330.16 566.663 330.593C566.663 331.027 566.569 331.401 566.382 331.714C566.194 332.026 565.922 332.264 565.567 332.43C565.213 332.597 564.785 332.68 564.282 332.68H562.553V331.567H564.058C564.322 331.567 564.542 331.531 564.716 331.459C564.891 331.386 565.021 331.278 565.106 331.133C565.194 330.988 565.237 330.808 565.237 330.593C565.237 330.375 565.194 330.192 565.106 330.043C565.021 329.894 564.89 329.781 564.713 329.704C564.539 329.625 564.318 329.586 564.052 329.586H563.118V335H561.735ZM565.269 332.021L566.896 335H565.368L563.777 332.021H565.269ZM568.926 328.455V335H567.542V328.455H568.926Z" fill="#344661" fill-opacity="0.9"/>
<path d="M600.12 330.337C600.094 330.079 599.984 329.879 599.79 329.736C599.597 329.593 599.333 329.522 599.001 329.522C598.775 329.522 598.585 329.554 598.429 329.618C598.273 329.68 598.154 329.766 598.071 329.877C597.99 329.988 597.95 330.113 597.95 330.254C597.945 330.371 597.97 330.473 598.023 330.561C598.078 330.648 598.154 330.724 598.25 330.788C598.346 330.849 598.457 330.904 598.582 330.951C598.708 330.995 598.842 331.034 598.985 331.066L599.573 331.206C599.859 331.27 600.121 331.355 600.359 331.462C600.598 331.569 600.805 331.7 600.979 331.855C601.154 332.011 601.289 332.194 601.385 332.405C601.483 332.616 601.533 332.858 601.536 333.13C601.533 333.531 601.431 333.878 601.229 334.172C601.028 334.464 600.739 334.691 600.359 334.853C599.982 335.013 599.527 335.093 598.995 335.093C598.466 335.093 598.006 335.012 597.614 334.85C597.224 334.688 596.919 334.448 596.7 334.131C596.483 333.811 596.369 333.416 596.358 332.945H597.697C597.712 333.164 597.775 333.348 597.886 333.495C597.999 333.64 598.149 333.749 598.336 333.824C598.526 333.896 598.74 333.933 598.979 333.933C599.213 333.933 599.417 333.898 599.589 333.83C599.764 333.762 599.899 333.667 599.995 333.546C600.091 333.424 600.139 333.285 600.139 333.127C600.139 332.98 600.095 332.857 600.008 332.756C599.923 332.656 599.797 332.571 599.631 332.501C599.467 332.43 599.265 332.366 599.027 332.309L598.314 332.13C597.762 331.996 597.326 331.786 597.007 331.5C596.687 331.215 596.528 330.83 596.531 330.347C596.528 329.95 596.634 329.604 596.847 329.308C597.062 329.012 597.357 328.781 597.732 328.614C598.107 328.448 598.533 328.365 599.011 328.365C599.496 328.365 599.92 328.448 600.283 328.614C600.647 328.781 600.93 329.012 601.133 329.308C601.335 329.604 601.44 329.947 601.446 330.337H600.12ZM603.346 335H601.863L604.123 328.455H605.906L608.163 335H606.68L605.04 329.95H604.989L603.346 335ZM603.253 332.427H606.756V333.507H603.253V332.427ZM607.802 329.596V328.455H613.178V329.596H611.174V335H609.806V329.596H607.802Z" fill="#344661" fill-opacity="0.9"/>
<path d="M644.12 330.337C644.094 330.079 643.984 329.879 643.79 329.736C643.597 329.593 643.333 329.522 643.001 329.522C642.775 329.522 642.585 329.554 642.429 329.618C642.273 329.68 642.154 329.766 642.071 329.877C641.99 329.988 641.95 330.113 641.95 330.254C641.945 330.371 641.97 330.473 642.023 330.561C642.078 330.648 642.154 330.724 642.25 330.788C642.346 330.849 642.457 330.904 642.582 330.951C642.708 330.995 642.842 331.034 642.985 331.066L643.573 331.206C643.859 331.27 644.121 331.355 644.359 331.462C644.598 331.569 644.805 331.7 644.979 331.855C645.154 332.011 645.289 332.194 645.385 332.405C645.483 332.616 645.533 332.858 645.536 333.13C645.533 333.531 645.431 333.878 645.229 334.172C645.028 334.464 644.739 334.691 644.359 334.853C643.982 335.013 643.527 335.093 642.995 335.093C642.466 335.093 642.006 335.012 641.614 334.85C641.224 334.688 640.919 334.448 640.7 334.131C640.483 333.811 640.369 333.416 640.358 332.945H641.697C641.712 333.164 641.775 333.348 641.886 333.495C641.999 333.64 642.149 333.749 642.336 333.824C642.526 333.896 642.74 333.933 642.979 333.933C643.213 333.933 643.417 333.898 643.589 333.83C643.764 333.762 643.899 333.667 643.995 333.546C644.091 333.424 644.139 333.285 644.139 333.127C644.139 332.98 644.095 332.857 644.008 332.756C643.923 332.656 643.797 332.571 643.631 332.501C643.467 332.43 643.265 332.366 643.027 332.309L642.314 332.13C641.762 331.996 641.326 331.786 641.007 331.5C640.687 331.215 640.528 330.83 640.531 330.347C640.528 329.95 640.634 329.604 640.847 329.308C641.062 329.012 641.357 328.781 641.732 328.614C642.107 328.448 642.533 328.365 643.011 328.365C643.496 328.365 643.92 328.448 644.283 328.614C644.647 328.781 644.93 329.012 645.133 329.308C645.335 329.604 645.44 329.947 645.446 330.337H644.12ZM650.41 328.455H651.794V332.705C651.794 333.183 651.68 333.6 651.452 333.958C651.226 334.316 650.91 334.595 650.503 334.795C650.096 334.994 649.622 335.093 649.081 335.093C648.537 335.093 648.062 334.994 647.655 334.795C647.248 334.595 646.932 334.316 646.706 333.958C646.48 333.6 646.367 333.183 646.367 332.705V328.455H647.751V332.587C647.751 332.836 647.806 333.058 647.914 333.252C648.025 333.446 648.181 333.598 648.381 333.709C648.581 333.82 648.814 333.875 649.081 333.875C649.349 333.875 649.583 333.82 649.781 333.709C649.981 333.598 650.135 333.446 650.244 333.252C650.355 333.058 650.41 332.836 650.41 332.587V328.455ZM658.309 328.455V335H657.113L654.266 330.88H654.218V335H652.834V328.455H654.048L656.874 332.571H656.931V328.455H658.309Z" fill="#344661" fill-opacity="0.9"/>
<path d="M18.3782 28.4545V35H16.9943V29.7681H16.956L15.457 30.7077V29.4805L17.0774 28.4545H18.3782ZM22.6825 28.4545V35H21.2986V29.7681H21.2603L19.7614 30.7077V29.4805L21.3817 28.4545H22.6825ZM26.7056 35.1438C26.1559 35.1417 25.6829 35.0064 25.2866 34.7379C24.8924 34.4695 24.5888 34.0806 24.3757 33.5714C24.1647 33.0621 24.0603 32.4496 24.0625 31.7337C24.0625 31.0199 24.1679 30.4116 24.3789 29.9087C24.592 29.4059 24.8956 29.0234 25.2897 28.7614C25.6861 28.4972 26.158 28.3651 26.7056 28.3651C27.2532 28.3651 27.7241 28.4972 28.1182 28.7614C28.5145 29.0256 28.8192 29.4091 29.0323 29.9119C29.2454 30.4126 29.3508 31.0199 29.3487 31.7337C29.3487 32.4517 29.2422 33.0653 29.0291 33.5746C28.8182 34.0838 28.5156 34.4727 28.1214 34.7411C27.7272 35.0096 27.2553 35.1438 26.7056 35.1438ZM26.7056 33.9964C27.0806 33.9964 27.3799 33.8079 27.6037 33.4308C27.8274 33.0536 27.9382 32.4879 27.9361 31.7337C27.9361 31.2372 27.8849 30.8239 27.7826 30.4936C27.6825 30.1634 27.5397 29.9151 27.3544 29.7489C27.1711 29.5827 26.9549 29.4996 26.7056 29.4996C26.3327 29.4996 26.0344 29.6861 25.8107 30.0589C25.587 30.4318 25.4741 30.9901 25.4719 31.7337C25.4719 32.2365 25.522 32.6562 25.6221 32.9929C25.7244 33.3274 25.8682 33.5788 26.0536 33.7472C26.239 33.9134 26.4563 33.9964 26.7056 33.9964Z" fill="#344661" fill-opacity="0.9"/>
<path d="M16.3782 55.4545V62H14.9943V56.7681H14.956L13.457 57.7077V56.4805L15.0774 55.4545H16.3782ZM20.4013 62.1438C19.8516 62.1417 19.3785 62.0064 18.9822 61.7379C18.5881 61.4695 18.2844 61.0806 18.0714 60.5714C17.8604 60.0621 17.756 59.4496 17.7582 58.7337C17.7582 58.0199 17.8636 57.4116 18.0746 56.9087C18.2876 56.4059 18.5913 56.0234 18.9854 55.7614C19.3817 55.4972 19.8537 55.3651 20.4013 55.3651C20.9489 55.3651 21.4197 55.4972 21.8139 55.7614C22.2102 56.0256 22.5149 56.4091 22.728 56.9119C22.941 57.4126 23.0465 58.0199 23.0444 58.7337C23.0444 59.4517 22.9378 60.0653 22.7248 60.5746C22.5138 61.0838 22.2113 61.4727 21.8171 61.7411C21.4229 62.0096 20.951 62.1438 20.4013 62.1438ZM20.4013 60.9964C20.7763 60.9964 21.0756 60.8079 21.2993 60.4308C21.5231 60.0536 21.6339 59.4879 21.6317 58.7337C21.6317 58.2372 21.5806 57.8239 21.4783 57.4936C21.3782 57.1634 21.2354 56.9151 21.0501 56.7489C20.8668 56.5827 20.6506 56.4996 20.4013 56.4996C20.0284 56.4996 19.7301 56.6861 19.5064 57.0589C19.2827 57.4318 19.1697 57.9901 19.1676 58.7337C19.1676 59.2365 19.2177 59.6562 19.3178 59.9929C19.4201 60.3274 19.5639 60.5788 19.7493 60.7472C19.9346 60.9134 20.152 60.9964 20.4013 60.9964ZM26.4986 62.1438C25.9488 62.1417 25.4758 62.0064 25.0795 61.7379C24.6853 61.4695 24.3817 61.0806 24.1687 60.5714C23.9577 60.0621 23.8533 59.4496 23.8554 58.7337C23.8554 58.0199 23.9609 57.4116 24.1719 56.9087C24.3849 56.4059 24.6885 56.0234 25.0827 55.7614C25.479 55.4972 25.951 55.3651 26.4986 55.3651C27.0461 55.3651 27.517 55.4972 27.9112 55.7614C28.3075 56.0256 28.6122 56.4091 28.8253 56.9119C29.0383 57.4126 29.1438 58.0199 29.1417 58.7337C29.1417 59.4517 29.0351 60.0653 28.8221 60.5746C28.6111 61.0838 28.3086 61.4727 27.9144 61.7411C27.5202 62.0096 27.0483 62.1438 26.4986 62.1438ZM26.4986 60.9964C26.8736 60.9964 27.1729 60.8079 27.3966 60.4308C27.6204 60.0536 27.7312 59.4879 27.729 58.7337C27.729 58.2372 27.6779 57.8239 27.5756 57.4936C27.4755 57.1634 27.3327 56.9151 27.1473 56.7489C26.9641 56.5827 26.7478 56.4996 26.4986 56.4996C26.1257 56.4996 25.8274 56.6861 25.6037 57.0589C25.3799 57.4318 25.267 57.9901 25.2649 58.7337C25.2649 59.2365 25.315 59.6562 25.4151 59.9929C25.5174 60.3274 25.6612 60.5788 25.8466 60.7472C26.0319 60.9134 26.2493 60.9964 26.4986 60.9964Z" fill="#344661" fill-opacity="0.9"/>
<path d="M19.8988 82.3651C20.2354 82.3651 20.5593 82.4215 20.8704 82.5344C21.1836 82.6474 21.4627 82.8274 21.7077 83.0746C21.9549 83.3217 22.1499 83.6499 22.2926 84.0589C22.4375 84.4659 22.511 84.9656 22.5131 85.5579C22.5131 86.114 22.4503 86.6104 22.3246 87.0472C22.201 87.4819 22.0231 87.8516 21.7908 88.1562C21.5586 88.4609 21.2784 88.6932 20.9503 88.853C20.6222 89.0107 20.2557 89.0895 19.8509 89.0895C19.4141 89.0895 19.0284 89.0053 18.6939 88.837C18.3594 88.6665 18.0898 88.4354 17.8853 88.1435C17.6829 87.8494 17.5604 87.5192 17.5178 87.1527H18.8825C18.9357 87.3913 19.0476 87.5767 19.218 87.7088C19.3885 87.8388 19.5994 87.9038 19.8509 87.9038C20.277 87.9038 20.6009 87.7184 20.8224 87.3477C21.044 86.9748 21.1559 86.4645 21.158 85.8168H21.1133C21.0153 86.0085 20.8832 86.1737 20.717 86.3121C20.5508 86.4485 20.3601 86.554 20.1449 86.6286C19.9318 86.7031 19.7049 86.7404 19.4641 86.7404C19.0785 86.7404 18.7344 86.6499 18.4318 86.4688C18.1293 86.2876 17.8906 86.0384 17.7159 85.7209C17.5412 85.4034 17.4538 85.0412 17.4538 84.6342C17.4517 84.1953 17.5529 83.8043 17.7575 83.4613C17.962 83.1183 18.2475 82.8498 18.614 82.6559C18.9826 82.4599 19.4109 82.3629 19.8988 82.3651ZM19.9084 83.4517C19.6932 83.4517 19.5014 83.5028 19.3331 83.6051C19.1669 83.7074 19.0348 83.8448 18.9368 84.0174C18.8409 84.19 18.794 84.3828 18.7962 84.5959C18.7962 84.8111 18.843 85.005 18.9368 85.1776C19.0327 85.348 19.1626 85.4844 19.3267 85.5866C19.4929 85.6868 19.6825 85.7369 19.8956 85.7369C20.0554 85.7369 20.2035 85.707 20.3398 85.6474C20.4762 85.5877 20.5945 85.5057 20.6946 85.4013C20.7969 85.2947 20.8768 85.1722 20.9343 85.0337C20.9918 84.8952 21.0206 84.7482 21.0206 84.5927C21.0185 84.386 20.9695 84.1964 20.8736 84.0238C20.7777 83.8512 20.6456 83.7127 20.4773 83.6083C20.3089 83.5039 20.1193 83.4517 19.9084 83.4517ZM25.9394 89.1438C25.3896 89.1417 24.9166 89.0064 24.5203 88.7379C24.1261 88.4695 23.8225 88.0806 23.6095 87.5714C23.3985 87.0621 23.2941 86.4496 23.2962 85.7337C23.2962 85.0199 23.4017 84.4116 23.6126 83.9087C23.8257 83.4059 24.1293 83.0234 24.5235 82.7614C24.9198 82.4972 25.3918 82.3651 25.9394 82.3651C26.4869 82.3651 26.9578 82.4972 27.352 82.7614C27.7483 83.0256 28.053 83.4091 28.2661 83.9119C28.4791 84.4126 28.5846 85.0199 28.5825 85.7337C28.5825 86.4517 28.4759 87.0653 28.2629 87.5746C28.0519 88.0838 27.7494 88.4727 27.3552 88.7411C26.961 89.0096 26.4891 89.1438 25.9394 89.1438ZM25.9394 87.9964C26.3144 87.9964 26.6137 87.8079 26.8374 87.4308C27.0612 87.0536 27.172 86.4879 27.1698 85.7337C27.1698 85.2372 27.1187 84.8239 27.0164 84.4936C26.9163 84.1634 26.7735 83.9151 26.5881 83.7489C26.4049 83.5827 26.1886 83.4996 25.9394 83.4996C25.5665 83.4996 25.2682 83.6861 25.0445 84.0589C24.8207 84.4318 24.7078 84.9901 24.7057 85.7337C24.7057 86.2365 24.7558 86.6562 24.8559 86.9929C24.9582 87.3274 25.102 87.5788 25.2874 87.7472C25.4727 87.9134 25.6901 87.9964 25.9394 87.9964Z" fill="#344661" fill-opacity="0.9"/>
<path d="M19.9723 116.089C19.4801 116.089 19.0423 116.01 18.6587 115.85C18.2773 115.688 17.978 115.467 17.7607 115.188C17.5433 114.909 17.4347 114.593 17.4347 114.239C17.4347 113.966 17.4964 113.716 17.62 113.488C17.7457 113.258 17.9162 113.067 18.1314 112.916C18.3466 112.762 18.5874 112.664 18.8537 112.622V112.577C18.5043 112.507 18.2209 112.337 18.0036 112.069C17.7862 111.798 17.6776 111.484 17.6776 111.126C17.6776 110.787 17.7766 110.486 17.9748 110.222C18.1729 109.955 18.4446 109.746 18.7898 109.595C19.1371 109.442 19.5312 109.365 19.9723 109.365C20.4134 109.365 20.8065 109.442 21.1516 109.595C21.4989 109.749 21.7717 109.958 21.9698 110.225C22.168 110.489 22.2681 110.789 22.2702 111.126C22.2681 111.486 22.1573 111.8 21.9379 112.069C21.7184 112.337 21.4371 112.507 21.0941 112.577V112.622C21.3562 112.664 21.5938 112.762 21.8068 112.916C22.022 113.067 22.1925 113.258 22.3182 113.488C22.446 113.716 22.511 113.966 22.5131 114.239C22.511 114.593 22.4013 114.909 22.1839 115.188C21.9666 115.467 21.6662 115.688 21.2827 115.85C20.9013 116.01 20.4645 116.089 19.9723 116.089ZM19.9723 115.073C20.1918 115.073 20.3835 115.034 20.5476 114.955C20.7116 114.874 20.8395 114.763 20.9311 114.623C21.0249 114.48 21.0717 114.316 21.0717 114.13C21.0717 113.941 21.0238 113.773 20.9279 113.629C20.832 113.482 20.7021 113.366 20.538 113.283C20.3739 113.198 20.1854 113.156 19.9723 113.156C19.7614 113.156 19.5728 113.198 19.4066 113.283C19.2404 113.366 19.1094 113.482 19.0135 113.629C18.9197 113.773 18.8729 113.941 18.8729 114.13C18.8729 114.316 18.9187 114.48 19.0103 114.623C19.1019 114.763 19.2308 114.874 19.397 114.955C19.5632 115.034 19.755 115.073 19.9723 115.073ZM19.9723 112.149C20.1555 112.149 20.3185 112.112 20.4613 112.037C20.604 111.962 20.7159 111.859 20.7969 111.727C20.8778 111.595 20.9183 111.442 20.9183 111.27C20.9183 111.099 20.8778 110.95 20.7969 110.822C20.7159 110.692 20.6051 110.591 20.4645 110.519C20.3239 110.444 20.1598 110.407 19.9723 110.407C19.7869 110.407 19.6229 110.444 19.4801 110.519C19.3374 110.591 19.2255 110.692 19.1445 110.822C19.0657 110.95 19.0263 111.099 19.0263 111.27C19.0263 111.442 19.0668 111.595 19.1477 111.727C19.2287 111.859 19.3406 111.962 19.4833 112.037C19.6261 112.112 19.7891 112.149 19.9723 112.149ZM25.9481 116.144C25.3984 116.142 24.9254 116.006 24.5291 115.738C24.1349 115.469 23.8313 115.081 23.6182 114.571C23.4073 114.062 23.3029 113.45 23.305 112.734C23.305 112.02 23.4105 111.412 23.6214 110.909C23.8345 110.406 24.1381 110.023 24.5323 109.761C24.9286 109.497 25.4006 109.365 25.9481 109.365C26.4957 109.365 26.9666 109.497 27.3608 109.761C27.7571 110.026 28.0618 110.409 28.2748 110.912C28.4879 111.413 28.5934 112.02 28.5913 112.734C28.5913 113.452 28.4847 114.065 28.2717 114.575C28.0607 115.084 27.7582 115.473 27.364 115.741C26.9698 116.01 26.4979 116.144 25.9481 116.144ZM25.9481 114.996C26.3231 114.996 26.6225 114.808 26.8462 114.431C27.0699 114.054 27.1807 113.488 27.1786 112.734C27.1786 112.237 27.1275 111.824 27.0252 111.494C26.9251 111.163 26.7823 110.915 26.5969 110.749C26.4137 110.583 26.1974 110.5 25.9481 110.5C25.5753 110.5 25.277 110.686 25.0533 111.059C24.8295 111.432 24.7166 111.99 24.7145 112.734C24.7145 113.237 24.7645 113.656 24.8647 113.993C24.967 114.327 25.1108 114.579 25.2962 114.747C25.4815 114.913 25.6989 114.996 25.9481 114.996Z" fill="#344661" fill-opacity="0.9"/>
<path d="M18.7894 143L21.5028 137.631V137.586H18.342V136.455H22.9347V137.602L20.218 143H18.7894ZM26.2099 143.144C25.6601 143.142 25.1871 143.006 24.7908 142.738C24.3966 142.469 24.093 142.081 23.88 141.571C23.669 141.062 23.5646 140.45 23.5667 139.734C23.5667 139.02 23.6722 138.412 23.8832 137.909C24.0962 137.406 24.3998 137.023 24.794 136.761C25.1903 136.497 25.6623 136.365 26.2099 136.365C26.7574 136.365 27.2283 136.497 27.6225 136.761C28.0188 137.026 28.3235 137.409 28.5366 137.912C28.7496 138.413 28.8551 139.02 28.853 139.734C28.853 140.452 28.7464 141.065 28.5334 141.575C28.3224 142.084 28.0199 142.473 27.6257 142.741C27.2315 143.01 26.7596 143.144 26.2099 143.144ZM26.2099 141.996C26.5849 141.996 26.8842 141.808 27.1079 141.431C27.3317 141.054 27.4425 140.488 27.4403 139.734C27.4403 139.237 27.3892 138.824 27.2869 138.494C27.1868 138.163 27.044 137.915 26.8587 137.749C26.6754 137.583 26.4591 137.5 26.2099 137.5C25.837 137.5 25.5387 137.686 25.315 138.059C25.0913 138.432 24.9783 138.99 24.9762 139.734C24.9762 140.237 25.0263 140.656 25.1264 140.993C25.2287 141.327 25.3725 141.579 25.5579 141.747C25.7432 141.913 25.9606 141.996 26.2099 141.996Z" fill="#344661" fill-opacity="0.9"/>
<path d="M20.0426 170.089C19.706 170.087 19.381 170.031 19.0678 169.92C18.7567 169.809 18.4776 169.629 18.2305 169.38C17.9833 169.131 17.7873 168.8 17.6424 168.389C17.4996 167.978 17.4283 167.473 17.4283 166.874C17.4304 166.325 17.4933 165.833 17.6168 165.401C17.7425 164.966 17.9215 164.598 18.1538 164.295C18.3881 163.993 18.6683 163.762 18.9943 163.605C19.3203 163.445 19.6857 163.365 20.0906 163.365C20.5273 163.365 20.913 163.45 21.2475 163.621C21.582 163.789 21.8505 164.018 22.0529 164.308C22.2575 164.598 22.381 164.923 22.4237 165.283H21.0589C21.0057 165.055 20.8938 164.876 20.7234 164.746C20.5529 164.616 20.342 164.551 20.0906 164.551C19.6644 164.551 19.3406 164.736 19.119 165.107C18.8995 165.478 18.7876 165.982 18.7834 166.619H18.8281C18.9261 166.425 19.0582 166.26 19.2244 166.123C19.3928 165.985 19.5835 165.879 19.7965 165.807C20.0117 165.732 20.2386 165.695 20.4773 165.695C20.8651 165.695 21.2102 165.787 21.5128 165.97C21.8153 166.151 22.054 166.4 22.2287 166.718C22.4034 167.035 22.4908 167.398 22.4908 167.808C22.4908 168.251 22.3874 168.645 22.1808 168.99C21.9762 169.335 21.6896 169.606 21.321 169.802C20.9545 169.996 20.5284 170.092 20.0426 170.089ZM20.0362 169.003C20.2493 169.003 20.44 168.952 20.6083 168.849C20.7766 168.747 20.9087 168.609 21.0046 168.434C21.1005 168.259 21.1484 168.063 21.1484 167.846C21.1484 167.629 21.1005 167.434 21.0046 167.261C20.9109 167.088 20.7809 166.951 20.6147 166.849C20.4485 166.746 20.2589 166.695 20.0458 166.695C19.886 166.695 19.7379 166.725 19.6016 166.785C19.4673 166.844 19.3491 166.928 19.2468 167.034C19.1467 167.141 19.0678 167.264 19.0103 167.405C18.9528 167.543 18.924 167.691 18.924 167.849C18.924 168.06 18.9719 168.253 19.0678 168.428C19.1658 168.602 19.2979 168.742 19.4641 168.846C19.6325 168.951 19.8232 169.003 20.0362 169.003ZM25.9394 170.144C25.3896 170.142 24.9166 170.006 24.5203 169.738C24.1261 169.469 23.8225 169.081 23.6095 168.571C23.3985 168.062 23.2941 167.45 23.2962 166.734C23.2962 166.02 23.4017 165.412 23.6126 164.909C23.8257 164.406 24.1293 164.023 24.5235 163.761C24.9198 163.497 25.3918 163.365 25.9394 163.365C26.4869 163.365 26.9578 163.497 27.352 163.761C27.7483 164.026 28.053 164.409 28.2661 164.912C28.4791 165.413 28.5846 166.02 28.5825 166.734C28.5825 167.452 28.4759 168.065 28.2629 168.575C28.0519 169.084 27.7494 169.473 27.3552 169.741C26.961 170.01 26.4891 170.144 25.9394 170.144ZM25.9394 168.996C26.3144 168.996 26.6137 168.808 26.8374 168.431C27.0612 168.054 27.172 167.488 27.1698 166.734C27.1698 166.237 27.1187 165.824 27.0164 165.494C26.9163 165.163 26.7735 164.915 26.5881 164.749C26.4049 164.583 26.1886 164.5 25.9394 164.5C25.5665 164.5 25.2682 164.686 25.0445 165.059C24.8207 165.432 24.7078 165.99 24.7057 166.734C24.7057 167.237 24.7558 167.656 24.8559 167.993C24.9582 168.327 25.102 168.579 25.2874 168.747C25.4727 168.913 25.6901 168.996 25.9394 168.996Z" fill="#344661" fill-opacity="0.9"/>
<path d="M20.9212 197.089C20.4695 197.089 20.0668 197.006 19.7131 196.84C19.3615 196.674 19.0824 196.445 18.8757 196.153C18.669 195.861 18.5614 195.527 18.5529 195.15H19.8952C19.9102 195.403 20.0167 195.609 20.2148 195.766C20.413 195.924 20.6484 196.003 20.9212 196.003C21.1385 196.003 21.3303 195.955 21.4964 195.859C21.6648 195.761 21.7958 195.626 21.8896 195.453C21.9854 195.278 22.0334 195.078 22.0334 194.852C22.0334 194.622 21.9844 194.42 21.8864 194.245C21.7905 194.07 21.6573 193.934 21.4869 193.836C21.3164 193.738 21.1214 193.688 20.902 193.686C20.7102 193.686 20.5238 193.725 20.3427 193.804C20.1637 193.883 20.0241 193.99 19.924 194.127L18.6935 193.906L19.0036 190.455H23.005V191.586H20.1445L19.9751 193.225H20.0135C20.1286 193.064 20.3022 192.929 20.5344 192.823C20.7667 192.716 21.0266 192.663 21.3143 192.663C21.7085 192.663 22.06 192.756 22.369 192.941C22.6779 193.126 22.9219 193.381 23.1009 193.705C23.2798 194.027 23.3683 194.397 23.3661 194.817C23.3683 195.258 23.266 195.65 23.0593 195.993C22.8548 196.334 22.5682 196.603 22.1996 196.799C21.8331 196.993 21.407 197.089 20.9212 197.089ZM26.7987 197.144C26.249 197.142 25.776 197.006 25.3797 196.738C24.9855 196.469 24.6819 196.081 24.4688 195.571C24.2579 195.062 24.1535 194.45 24.1556 193.734C24.1556 193.02 24.2611 192.412 24.472 191.909C24.6851 191.406 24.9887 191.023 25.3829 190.761C25.7792 190.497 26.2511 190.365 26.7987 190.365C27.3463 190.365 27.8172 190.497 28.2114 190.761C28.6077 191.026 28.9124 191.409 29.1254 191.912C29.3385 192.413 29.444 193.02 29.4418 193.734C29.4418 194.452 29.3353 195.065 29.1222 195.575C28.9113 196.084 28.6087 196.473 28.2146 196.741C27.8204 197.01 27.3484 197.144 26.7987 197.144ZM26.7987 195.996C27.1737 195.996 27.4731 195.808 27.6968 195.431C27.9205 195.054 28.0313 194.488 28.0292 193.734C28.0292 193.237 27.9781 192.824 27.8758 192.494C27.7756 192.163 27.6329 191.915 27.4475 191.749C27.2643 191.583 27.048 191.5 26.7987 191.5C26.4259 191.5 26.1276 191.686 25.9038 192.059C25.6801 192.432 25.5672 192.99 25.5651 193.734C25.5651 194.237 25.6151 194.656 25.7153 194.993C25.8175 195.327 25.9614 195.579 26.1467 195.747C26.3321 195.913 26.5494 195.996 26.7987 195.996Z" fill="#344661" fill-opacity="0.9"/>
<path d="M17.4315 222.849V221.76L20.1641 217.455H21.1037V218.963H20.5476L18.8249 221.689V221.74H22.7081V222.849H17.4315ZM20.5732 224V222.517L20.5987 222.034V217.455H21.8963V224H20.5732ZM26.0976 224.144C25.5478 224.142 25.0748 224.006 24.6785 223.738C24.2843 223.469 23.9807 223.081 23.7677 222.571C23.5567 222.062 23.4523 221.45 23.4544 220.734C23.4544 220.02 23.5599 219.412 23.7709 218.909C23.9839 218.406 24.2875 218.023 24.6817 217.761C25.078 217.497 25.55 217.365 26.0976 217.365C26.6451 217.365 27.116 217.497 27.5102 217.761C27.9065 218.026 28.2112 218.409 28.4243 218.912C28.6373 219.413 28.7428 220.02 28.7407 220.734C28.7407 221.452 28.6341 222.065 28.4211 222.575C28.2101 223.084 27.9076 223.473 27.5134 223.741C27.1192 224.01 26.6473 224.144 26.0976 224.144ZM26.0976 222.996C26.4726 222.996 26.7719 222.808 26.9956 222.431C27.2194 222.054 27.3302 221.488 27.328 220.734C27.328 220.237 27.2769 219.824 27.1746 219.494C27.0745 219.163 26.9317 218.915 26.7463 218.749C26.5631 218.583 26.3468 218.5 26.0976 218.5C25.7247 218.5 25.4264 218.686 25.2027 219.059C24.9789 219.432 24.866 219.99 24.8639 220.734C24.8639 221.237 24.914 221.656 25.0141 221.993C25.1164 222.327 25.2602 222.579 25.4456 222.747C25.6309 222.913 25.8483 222.996 26.0976 222.996Z" fill="#344661" fill-opacity="0.9"/>
<path d="M19.9499 251.089C19.4727 251.089 19.0476 251.007 18.6747 250.843C18.304 250.677 18.011 250.449 17.7958 250.159C17.5827 249.868 17.473 249.531 17.4666 249.15H18.8601C18.8686 249.309 18.9208 249.45 19.0167 249.571C19.1147 249.691 19.2447 249.783 19.4066 249.849C19.5685 249.915 19.7507 249.949 19.9531 249.949C20.1641 249.949 20.3505 249.911 20.5124 249.837C20.6744 249.762 20.8011 249.659 20.8928 249.527C20.9844 249.395 21.0302 249.242 21.0302 249.07C21.0302 248.895 20.9812 248.74 20.8832 248.606C20.7873 248.47 20.6488 248.363 20.4677 248.287C20.2887 248.21 20.0756 248.172 19.8285 248.172H19.218V247.155H19.8285C20.0373 247.155 20.2216 247.119 20.3814 247.047C20.5433 246.974 20.669 246.874 20.7585 246.746C20.848 246.616 20.8928 246.465 20.8928 246.292C20.8928 246.128 20.8533 245.984 20.7745 245.861C20.6978 245.735 20.5891 245.637 20.4485 245.567C20.31 245.496 20.1481 245.461 19.9627 245.461C19.7752 245.461 19.6037 245.495 19.4482 245.564C19.2926 245.63 19.168 245.724 19.0742 245.848C18.9805 245.972 18.9304 246.116 18.924 246.283H17.5977C17.604 245.906 17.7116 245.573 17.9205 245.286C18.1293 244.998 18.4105 244.773 18.7642 244.611C19.12 244.447 19.5217 244.365 19.9691 244.365C20.4208 244.365 20.8161 244.447 21.1548 244.611C21.4936 244.775 21.7567 244.997 21.9442 245.276C22.1339 245.553 22.2276 245.864 22.2255 246.209C22.2276 246.576 22.1136 246.881 21.8835 247.126C21.6555 247.371 21.3583 247.527 20.9918 247.593V247.644C21.4734 247.706 21.8398 247.873 22.0913 248.146C22.3448 248.417 22.4705 248.755 22.4684 249.162C22.4705 249.535 22.3629 249.866 22.1456 250.156C21.9304 250.446 21.6332 250.674 21.2539 250.84C20.8746 251.006 20.44 251.089 19.9499 251.089ZM25.9306 251.144C25.3808 251.142 24.9078 251.006 24.5115 250.738C24.1174 250.469 23.8137 250.081 23.6007 249.571C23.3897 249.062 23.2853 248.45 23.2875 247.734C23.2875 247.02 23.3929 246.412 23.6039 245.909C23.8169 245.406 24.1205 245.023 24.5147 244.761C24.911 244.497 25.383 244.365 25.9306 244.365C26.4781 244.365 26.949 244.497 27.3432 244.761C27.7395 245.026 28.0442 245.409 28.2573 245.912C28.4703 246.413 28.5758 247.02 28.5737 247.734C28.5737 248.452 28.4671 249.065 28.2541 249.575C28.0431 250.084 27.7406 250.473 27.3464 250.741C26.9522 251.01 26.4803 251.144 25.9306 251.144ZM25.9306 249.996C26.3056 249.996 26.6049 249.808 26.8286 249.431C27.0524 249.054 27.1632 248.488 27.161 247.734C27.161 247.237 27.1099 246.824 27.0076 246.494C26.9075 246.163 26.7647 245.915 26.5794 245.749C26.3961 245.583 26.1799 245.5 25.9306 245.5C25.5577 245.5 25.2594 245.686 25.0357 246.059C24.812 246.432 24.699 246.99 24.6969 247.734C24.6969 248.237 24.747 248.656 24.8471 248.993C24.9494 249.327 25.0932 249.579 25.2786 249.747C25.4639 249.913 25.6813 249.996 25.9306 249.996Z" fill="#344661" fill-opacity="0.9"/>
<path d="M18.5305 278V277.003L20.8604 274.846C21.0586 274.654 21.2248 274.481 21.359 274.328C21.4954 274.174 21.5987 274.024 21.669 273.877C21.7393 273.728 21.7745 273.567 21.7745 273.395C21.7745 273.203 21.7308 273.038 21.6435 272.899C21.5561 272.759 21.4368 272.651 21.2855 272.576C21.1342 272.5 20.9627 272.461 20.771 272.461C20.5707 272.461 20.396 272.502 20.2468 272.583C20.0977 272.664 19.9826 272.78 19.9016 272.931C19.8207 273.082 19.7802 273.262 19.7802 273.471H18.4666C18.4666 273.043 18.5636 272.671 18.7575 272.356C18.9513 272.04 19.223 271.797 19.5724 271.624C19.9219 271.451 20.3246 271.365 20.7805 271.365C21.2493 271.365 21.6573 271.448 22.0046 271.614C22.354 271.778 22.6257 272.006 22.8196 272.298C23.0135 272.59 23.1104 272.925 23.1104 273.302C23.1104 273.549 23.0614 273.793 22.9634 274.034C22.8675 274.275 22.696 274.542 22.4489 274.836C22.2017 275.128 21.8533 275.478 21.4038 275.887L20.4482 276.824V276.869H23.1967V278H18.5305ZM26.6669 278.144C26.1172 278.142 25.6442 278.006 25.2479 277.738C24.8537 277.469 24.5501 277.081 24.337 276.571C24.1261 276.062 24.0216 275.45 24.0238 274.734C24.0238 274.02 24.1292 273.412 24.3402 272.909C24.5533 272.406 24.8569 272.023 25.2511 271.761C25.6474 271.497 26.1193 271.365 26.6669 271.365C27.2145 271.365 27.6854 271.497 28.0795 271.761C28.4758 272.026 28.7805 272.409 28.9936 272.912C29.2067 273.413 29.3121 274.02 29.31 274.734C29.31 275.452 29.2035 276.065 28.9904 276.575C28.7795 277.084 28.4769 277.473 28.0827 277.741C27.6886 278.01 27.2166 278.144 26.6669 278.144ZM26.6669 276.996C27.0419 276.996 27.3413 276.808 27.565 276.431C27.7887 276.054 27.8995 275.488 27.8974 274.734C27.8974 274.237 27.8462 273.824 27.744 273.494C27.6438 273.163 27.5011 272.915 27.3157 272.749C27.1324 272.583 26.9162 272.5 26.6669 272.5C26.294 272.5 25.9957 272.686 25.772 273.059C25.5483 273.432 25.4354 273.99 25.4332 274.734C25.4332 275.237 25.4833 275.656 25.5834 275.993C25.6857 276.327 25.8295 276.579 26.0149 276.747C26.2003 276.913 26.4176 276.996 26.6669 276.996Z" fill="#344661" fill-opacity="0.9"/>
<path d="M22.3782 298.455V305H20.9943V299.768H20.956L19.457 300.708V299.48L21.0774 298.455H22.3782ZM26.4013 305.144C25.8516 305.142 25.3785 305.006 24.9822 304.738C24.5881 304.469 24.2844 304.081 24.0714 303.571C23.8604 303.062 23.756 302.45 23.7582 301.734C23.7582 301.02 23.8636 300.412 24.0746 299.909C24.2876 299.406 24.5913 299.023 24.9854 298.761C25.3817 298.497 25.8537 298.365 26.4013 298.365C26.9489 298.365 27.4197 298.497 27.8139 298.761C28.2102 299.026 28.5149 299.409 28.728 299.912C28.941 300.413 29.0465 301.02 29.0444 301.734C29.0444 302.452 28.9378 303.065 28.7248 303.575C28.5138 304.084 28.2113 304.473 27.8171 304.741C27.4229 305.01 26.951 305.144 26.4013 305.144ZM26.4013 303.996C26.7763 303.996 27.0756 303.808 27.2993 303.431C27.5231 303.054 27.6339 302.488 27.6317 301.734C27.6317 301.237 27.5806 300.824 27.4783 300.494C27.3782 300.163 27.2354 299.915 27.0501 299.749C26.8668 299.583 26.6506 299.5 26.4013 299.5C26.0284 299.5 25.7301 299.686 25.5064 300.059C25.2827 300.432 25.1697 300.99 25.1676 301.734C25.1676 302.237 25.2177 302.656 25.3178 302.993C25.4201 303.327 25.5639 303.579 25.7493 303.747C25.9346 303.913 26.152 303.996 26.4013 303.996Z" fill="#344661" fill-opacity="0.9"/>
<line x1="379.5" y1="9" x2="379.5" y2="295" stroke="url(#paint1_linear_0_1)" stroke-opacity="0.28"/>
<circle cx="380" cy="39" r="10" fill="white"/>
<defs>
<linearGradient id="paint0_linear_0_1" x1="304.5" y1="-80.5" x2="351.5" y2="210.5" gradientUnits="userSpaceOnUse">
<stop stop-color="#15BE30"/>
<stop offset="1" stop-color="#15BE30" stop-opacity="0"/>
</linearGradient>
<linearGradient id="paint1_linear_0_1" x1="379" y1="157" x2="379" y2="312" gradientUnits="userSpaceOnUse">
<stop stop-color="#22762F"/>
<stop offset="1" stop-color="#15BE30" stop-opacity="0"/>
</linearGradient>
</defs>
</svg>
