<svg width="32" height="32" viewBox="0 0 32 32" fill="none" xmlns="http://www.w3.org/2000/svg">
<circle cx="16" cy="16" r="16" fill="#4070F4" fill-opacity="0.1"/>
<path d="M21.475 12.94V16.8025C21.475 19.1125 20.155 20.1025 18.175 20.1025H11.5825C11.245 20.1025 10.9225 20.0725 10.6225 20.005C10.435 19.975 10.255 19.9225 10.09 19.8625C8.96497 19.4425 8.28247 18.4675 8.28247 16.8025V12.94C8.28247 10.63 9.60247 9.64001 11.5825 9.64001H18.175C19.855 9.64001 21.0625 10.3525 21.385 11.98C21.4375 12.28 21.475 12.5875 21.475 12.94Z" stroke="#4070F4" stroke-width="1.5" stroke-miterlimit="10" stroke-linecap="round" stroke-linejoin="round"/>
<path d="M23.7258 15.1901V19.0526C23.7258 21.3626 22.4058 22.3526 20.4258 22.3526H13.8333C13.2783 22.3526 12.7758 22.2776 12.3408 22.1126C11.4483 21.7826 10.8408 21.1001 10.6233 20.0051C10.9233 20.0726 11.2458 20.1026 11.5833 20.1026H18.1758C20.1558 20.1026 21.4758 19.1126 21.4758 16.8026V12.9401C21.4758 12.5876 21.4458 12.2726 21.3858 11.9801C22.8108 12.2801 23.7258 13.2851 23.7258 15.1901Z" stroke="#4070F4" stroke-width="1.5" stroke-miterlimit="10" stroke-linecap="round" stroke-linejoin="round"/>
<path d="M14.8738 16.8549C15.9673 16.8549 16.8538 15.9684 16.8538 14.8749C16.8538 13.7814 15.9673 12.8949 14.8738 12.8949C13.7803 12.8949 12.8938 13.7814 12.8938 14.8749C12.8938 15.9684 13.7803 16.8549 14.8738 16.8549Z" stroke="#4070F4" stroke-width="1.5" stroke-miterlimit="10" stroke-linecap="round" stroke-linejoin="round"/>
<path d="M10.585 13.225V16.525" stroke="#4070F4" stroke-width="1.5" stroke-miterlimit="10" stroke-linecap="round" stroke-linejoin="round"/>
<path d="M19.1663 13.2252V16.5252" stroke="#4070F4" stroke-width="1.5" stroke-miterlimit="10" stroke-linecap="round" stroke-linejoin="round"/>
</svg>
