<svg width="19" height="11" viewBox="0 0 19 11" fill="none" xmlns="http://www.w3.org/2000/svg">
<path fill-rule="evenodd" clip-rule="evenodd" d="M8.30173 1.05248C5.32001 1.56982 2.71108 3.48202 1.07285 5.26159C0.946529 5.3988 0.939123 5.61373 1.07371 5.77106C4.37876 9.63462 7.7677 10.456 10.6983 9.94752C13.68 9.43018 16.2889 7.51798 17.9272 5.73841C18.0535 5.6012 18.0609 5.38627 17.9263 5.22894C14.6212 1.36538 11.2323 0.544019 8.30173 1.05248ZM8.12463 0.151069C11.4551 -0.426779 15.1886 0.565535 18.6865 4.65462C19.1026 5.14101 19.1136 5.85072 18.6649 6.33813C16.9455 8.20586 14.1547 10.28 10.8754 10.8489C7.5449 11.4268 3.81144 10.4345 0.313462 6.34537C-0.102611 5.85899 -0.113558 5.14928 0.335143 4.66187C2.05454 2.79414 4.8453 0.720043 8.12463 0.151069Z" fill="black"/>
<path d="M12 5.5C12 6.88071 10.8807 8 9.5 8C8.11929 8 7 6.88071 7 5.5C7 4.11929 8.11929 3 9.5 3C10.8807 3 12 4.11929 12 5.5Z" fill="black"/>
</svg>
