<svg width="50" height="50" viewBox="0 0 50 50" fill="none" xmlns="http://www.w3.org/2000/svg">
<circle cx="25" cy="25" r="25" fill="#F2C94C" fill-opacity="0.1"/>
<circle cx="25" cy="25" r="19" fill="#F2C94C" fill-opacity="0.2"/>
<path d="M25.0556 12.5556C22.5833 12.5556 20.1666 13.2887 18.111 14.6622C16.0554 16.0357 14.4532 17.9879 13.5071 20.272C12.561 22.5561 12.3135 25.0694 12.7958 27.4942C13.2781 29.9189 14.4686 32.1462 16.2168 33.8944C17.9649 35.6425 20.1922 36.8331 22.617 37.3154C25.0417 37.7977 27.5551 37.5501 29.8391 36.604C32.1232 35.658 34.0755 34.0558 35.449 32.0002C36.8225 29.9446 37.5556 27.5278 37.5556 25.0556C37.5556 21.7403 36.2386 18.5609 33.8944 16.2167C31.5502 13.8725 28.3708 12.5556 25.0556 12.5556ZM33.2197 20.8602L22.954 31.1181L16.8915 25.0556C16.6843 24.8484 16.5679 24.5673 16.5679 24.2743C16.5679 23.9813 16.6843 23.7003 16.8915 23.4931C17.0987 23.2859 17.3798 23.1695 17.6728 23.1695C17.9658 23.1695 18.2468 23.2859 18.454 23.4931L22.9697 28.0087L31.6728 19.3134C31.7754 19.2108 31.8972 19.1294 32.0312 19.0739C32.1653 19.0183 32.3089 18.9898 32.454 18.9898C32.5991 18.9898 32.7428 19.0183 32.8768 19.0739C33.0109 19.1294 33.1327 19.2108 33.2353 19.3134C33.3379 19.416 33.4193 19.5378 33.4748 19.6718C33.5303 19.8059 33.5589 19.9495 33.5589 20.0946C33.5589 20.2397 33.5303 20.3834 33.4748 20.5174C33.4193 20.6515 33.3379 20.7733 33.2353 20.8759L33.2197 20.8602Z" fill="#F2C94C"/>
</svg>
