<svg width="32" height="32" viewBox="0 0 32 32" fill="none" xmlns="http://www.w3.org/2000/svg">
<circle cx="16" cy="16" r="16" fill="#F6F6F6"/>
<path d="M16 11.17H23.5" stroke="#4F4F4F" stroke-width="1.5" stroke-miterlimit="10" stroke-linecap="round" stroke-linejoin="round"/>
<path d="M17.665 8.5H21.835C23.17 8.5 23.5 8.83 23.5 10.15V13.2325C23.5 14.5525 23.17 14.8825 21.835 14.8825H17.665C16.33 14.8825 16 14.5525 16 13.2325V10.15C16 8.83 16.33 8.5 17.665 8.5Z" stroke="#4F4F4F" stroke-width="1.5" stroke-linecap="round" stroke-linejoin="round"/>
<path d="M8.5 19.795H16" stroke="#4F4F4F" stroke-width="1.5" stroke-miterlimit="10" stroke-linecap="round" stroke-linejoin="round"/>
<path d="M10.165 17.125H14.335C15.67 17.125 16 17.455 16 18.775V21.8575C16 23.1775 15.67 23.5075 14.335 23.5075H10.165C8.83 23.5075 8.5 23.1775 8.5 21.8575V18.775C8.5 17.455 8.83 17.125 10.165 17.125Z" stroke="#4F4F4F" stroke-width="1.5" stroke-linecap="round" stroke-linejoin="round"/>
<path d="M23.5 18.25C23.5 21.1525 21.1525 23.5 18.25 23.5L19.0375 22.1875" stroke="#4F4F4F" stroke-width="1.5" stroke-linecap="round" stroke-linejoin="round"/>
<path d="M8.5 13.75C8.5 10.8475 10.8475 8.5 13.75 8.5L12.9625 9.8125" stroke="#4F4F4F" stroke-width="1.5" stroke-linecap="round" stroke-linejoin="round"/>
</svg>
