<svg width="24" height="24" viewBox="0 0 24 24" fill="none" xmlns="http://www.w3.org/2000/svg">
<g clip-path="url(#clip0_1_537)">
<path d="M19.2901 17.29L18.0001 16V11C18.0001 7.93 16.3601 5.36 13.5001 4.68V4C13.5001 3.17 12.8301 2.5 12.0001 2.5C11.1701 2.5 10.5001 3.17 10.5001 4V4.68C7.63005 5.36 6.00005 7.92 6.00005 11V16L4.71005 17.29C4.08005 17.92 4.52005 19 5.41005 19H18.5801C19.4801 19 19.9201 17.92 19.2901 17.29ZM16.0001 17H8.00005V11C8.00005 8.52 9.51005 6.5 12.0001 6.5C14.4901 6.5 16.0001 8.52 16.0001 11V17ZM12.0001 22C13.1001 22 14.0001 21.1 14.0001 20H10.0001C10.0001 21.1 10.8901 22 12.0001 22Z" fill="#5976A2"/>
<rect x="13" width="11" height="12" rx="2" fill="#04AC1F"/>
<path d="M16.4325 3.5767C16.657 3.5767 16.8729 3.61435 17.0803 3.68963C17.2891 3.76491 17.4751 3.88494 17.6385 4.04972C17.8033 4.21449 17.9332 4.43324 18.0284 4.70597C18.125 4.97727 18.174 5.31037 18.1754 5.70526C18.1754 6.07599 18.1335 6.40696 18.0497 6.69815C17.9673 6.98793 17.8487 7.23438 17.6939 7.4375C17.5391 7.64062 17.3523 7.79545 17.1335 7.90199C16.9148 8.0071 16.6705 8.05966 16.4006 8.05966C16.1094 8.05966 15.8523 8.00355 15.6293 7.89134C15.4063 7.7777 15.2266 7.62358 15.0902 7.42898C14.9553 7.23295 14.8736 7.01278 14.8452 6.76847H15.755C15.7905 6.92756 15.8651 7.05114 15.9787 7.1392C16.0923 7.22585 16.233 7.26918 16.4006 7.26918C16.6847 7.26918 16.9006 7.1456 17.0483 6.89844C17.196 6.64986 17.2706 6.30966 17.272 5.87784H17.2422C17.1768 6.00568 17.0888 6.11577 16.978 6.2081C16.8672 6.29901 16.7401 6.36932 16.5966 6.41903C16.4545 6.46875 16.3033 6.49361 16.1428 6.49361C15.8857 6.49361 15.6562 6.43324 15.4545 6.3125C15.2528 6.19176 15.0938 6.02557 14.9773 5.81392C14.8608 5.60227 14.8026 5.3608 14.8026 5.08949C14.8011 4.79688 14.8686 4.53622 15.005 4.30753C15.1413 4.07884 15.3317 3.89986 15.576 3.7706C15.8217 3.63991 16.1072 3.57528 16.4325 3.5767ZM16.4389 4.30114C16.2955 4.30114 16.1676 4.33523 16.0554 4.40341C15.9446 4.47159 15.8565 4.56321 15.7912 4.67827C15.7273 4.79332 15.696 4.92187 15.6974 5.06392C15.6974 5.20739 15.7287 5.33665 15.7912 5.4517C15.8551 5.56534 15.9418 5.65625 16.0511 5.72443C16.1619 5.79119 16.2884 5.82457 16.4304 5.82457C16.5369 5.82457 16.6357 5.80469 16.7266 5.76491C16.8175 5.72514 16.8963 5.67045 16.9631 5.60085C17.0313 5.52983 17.0845 5.44815 17.1229 5.35582C17.1612 5.26349 17.1804 5.16548 17.1804 5.06179C17.179 4.92401 17.1463 4.79759 17.0824 4.68253C17.0185 4.56747 16.9304 4.47514 16.8182 4.40554C16.706 4.33594 16.5795 4.30114 16.4389 4.30114ZM20.3275 3.5767C20.5519 3.5767 20.7678 3.61435 20.9752 3.68963C21.184 3.76491 21.3701 3.88494 21.5334 4.04972C21.6982 4.21449 21.8282 4.43324 21.9233 4.70597C22.0199 4.97727 22.0689 5.31037 22.0704 5.70526C22.0704 6.07599 22.0285 6.40696 21.9447 6.69815C21.8623 6.98793 21.7437 7.23438 21.5888 7.4375C21.434 7.64062 21.2472 7.79545 21.0285 7.90199C20.8097 8.0071 20.5654 8.05966 20.2955 8.05966C20.0043 8.05966 19.7472 8.00355 19.5242 7.89134C19.3012 7.7777 19.1215 7.62358 18.9851 7.42898C18.8502 7.23295 18.7685 7.01278 18.7401 6.76847H19.6499C19.6854 6.92756 19.76 7.05114 19.8736 7.1392C19.9873 7.22585 20.1279 7.26918 20.2955 7.26918C20.5796 7.26918 20.7955 7.1456 20.9432 6.89844C21.091 6.64986 21.1655 6.30966 21.167 5.87784H21.1371C21.0718 6.00568 20.9837 6.11577 20.8729 6.2081C20.7621 6.29901 20.635 6.36932 20.4915 6.41903C20.3495 6.46875 20.1982 6.49361 20.0377 6.49361C19.7806 6.49361 19.5512 6.43324 19.3495 6.3125C19.1478 6.19176 18.9887 6.02557 18.8722 5.81392C18.7557 5.60227 18.6975 5.3608 18.6975 5.08949C18.6961 4.79688 18.7635 4.53622 18.8999 4.30753C19.0363 4.07884 19.2266 3.89986 19.4709 3.7706C19.7167 3.63991 20.0022 3.57528 20.3275 3.5767ZM20.3339 4.30114C20.1904 4.30114 20.0626 4.33523 19.9503 4.40341C19.8395 4.47159 19.7515 4.56321 19.6861 4.67827C19.6222 4.79332 19.591 4.92187 19.5924 5.06392C19.5924 5.20739 19.6236 5.33665 19.6861 5.4517C19.7501 5.56534 19.8367 5.65625 19.9461 5.72443C20.0569 5.79119 20.1833 5.82457 20.3253 5.82457C20.4319 5.82457 20.5306 5.80469 20.6215 5.76491C20.7124 5.72514 20.7912 5.67045 20.858 5.60085C20.9262 5.52983 20.9795 5.44815 21.0178 5.35582C21.0562 5.26349 21.0753 5.16548 21.0753 5.06179C21.0739 4.92401 21.0412 4.79759 20.9773 4.68253C20.9134 4.56747 20.8253 4.47514 20.7131 4.40554C20.6009 4.33594 20.4745 4.30114 20.3339 4.30114Z" fill="white"/>
</g>
<defs>
<clipPath id="clip0_1_537">
<rect width="24" height="24" fill="white"/>
</clipPath>
</defs>
</svg>
