<svg width="30" height="30" viewBox="0 0 30 30" fill="none" xmlns="http://www.w3.org/2000/svg">
<path d="M6.71625 5.63752C8.99962 3.61174 11.9475 2.49521 15 2.50002C21.9037 2.50002 27.5 8.09627 27.5 15C27.5041 17.5549 26.7215 20.0491 25.2588 22.1438L21.875 15H25C25 13.0117 24.4073 11.0685 23.2977 9.4187C22.188 7.76888 20.6116 6.48731 18.77 5.73771C16.9284 4.98811 14.9052 4.80452 12.9588 5.21038C11.0123 5.61624 9.23105 6.59314 7.8425 8.01627L6.7175 5.63877L6.71625 5.63752ZM23.2838 24.3625C21.0004 26.3883 18.0525 27.5048 15 27.5C8.09625 27.5 2.5 21.9038 2.5 15C2.5 12.3438 3.32875 9.88127 4.74125 7.85627L8.125 15H5C4.99996 16.9883 5.59265 18.9315 6.70235 20.5813C7.81205 22.2312 9.38838 23.5127 11.23 24.2623C13.0716 25.0119 15.0948 25.1955 17.0412 24.7896C18.9877 24.3838 20.769 23.4069 22.1575 21.9838L23.2825 24.3613L23.2838 24.3625ZM10.625 17.5H17.5C17.6658 17.5 17.8247 17.4342 17.9419 17.317C18.0592 17.1997 18.125 17.0408 18.125 16.875C18.125 16.7093 18.0592 16.5503 17.9419 16.4331C17.8247 16.3159 17.6658 16.25 17.5 16.25H12.5C11.6712 16.25 10.8763 15.9208 10.2903 15.3347C9.70424 14.7487 9.375 13.9538 9.375 13.125C9.375 12.2962 9.70424 11.5014 10.2903 10.9153C10.8763 10.3293 11.6712 10 12.5 10H13.75V8.75002H16.25V10H19.375V12.5H12.5C12.3342 12.5 12.1753 12.5659 12.0581 12.6831C11.9408 12.8003 11.875 12.9593 11.875 13.125C11.875 13.2908 11.9408 13.4497 12.0581 13.567C12.1753 13.6842 12.3342 13.75 12.5 13.75H17.5C18.3288 13.75 19.1237 14.0793 19.7097 14.6653C20.2958 15.2514 20.625 16.0462 20.625 16.875C20.625 17.7038 20.2958 18.4987 19.7097 19.0847C19.1237 19.6708 18.3288 20 17.5 20H16.25V21.25H13.75V20H10.625V17.5Z" fill="#E51F1F"/>
</svg>
