<svg width="32" height="32" viewBox="0 0 32 32" fill="none" xmlns="http://www.w3.org/2000/svg">
<circle cx="16" cy="16" r="16" fill="#F6F6F6"/>
<path d="M14.5825 15.3625H12.595C12.1225 15.3625 11.74 15.745 11.74 16.2175V20.0575H14.5825V15.3625V15.3625Z" stroke="#4F4F4F" stroke-width="1.5" stroke-miterlimit="10" stroke-linecap="round" stroke-linejoin="round"/>
<path d="M16.5709 11.95H15.4309C14.9584 11.95 14.5759 12.3325 14.5759 12.805V20.05H17.4184V12.805C17.4184 12.3325 17.0434 11.95 16.5709 11.95Z" stroke="#4F4F4F" stroke-width="1.5" stroke-miterlimit="10" stroke-linecap="round" stroke-linejoin="round"/>
<path d="M19.4111 16.6375H17.4236V20.05H20.2661V17.4925C20.2586 17.02 19.8761 16.6375 19.4111 16.6375Z" stroke="#4F4F4F" stroke-width="1.5" stroke-miterlimit="10" stroke-linecap="round" stroke-linejoin="round"/>
<path d="M13.75 23.5H18.25C22 23.5 23.5 22 23.5 18.25V13.75C23.5 10 22 8.5 18.25 8.5H13.75C10 8.5 8.5 10 8.5 13.75V18.25C8.5 22 10 23.5 13.75 23.5Z" stroke="#4F4F4F" stroke-width="1.5" stroke-linecap="round" stroke-linejoin="round"/>
</svg>
