<svg width="32" height="32" viewBox="0 0 32 32" fill="none" xmlns="http://www.w3.org/2000/svg">
<circle cx="16" cy="16" r="16" fill="#F6F6F6"/>
<path d="M15.1768 21.9026H20.0293C22.8043 21.9026 23.4943 21.2126 23.4943 18.4376C22.5343 18.4376 21.7618 17.6576 21.7618 16.7051C21.7618 15.7451 22.5343 14.9651 23.4943 14.9651V14.2751C23.4943 11.5001 22.8043 10.8101 20.0293 10.8101H15.2443V15.9026" stroke="#4F4F4F" stroke-width="1.5" stroke-linecap="round" stroke-linejoin="round"/>
<path d="M15.2452 19.6525V21.9025H13.1677C12.0577 21.9025 11.4052 21.145 10.6852 19.405L10.5502 19.0675C11.4577 18.7075 11.9002 17.6575 11.5177 16.75C11.1502 15.8425 10.1077 15.4075 9.19267 15.7825L9.06517 15.46C7.98517 12.82 8.36017 11.8975 11.0002 10.81L12.9802 10L15.2452 15.49V17.4025" stroke="#4F4F4F" stroke-width="1.5" stroke-linecap="round" stroke-linejoin="round"/>
<path d="M13.1216 21.9026H12.9941" stroke="#4F4F4F" stroke-width="1.5" stroke-linecap="round" stroke-linejoin="round"/>
</svg>
