<svg width="32" height="32" viewBox="0 0 32 32" fill="none" xmlns="http://www.w3.org/2000/svg">
<circle cx="16" cy="16" r="16" fill="#F6F6F6"/>
<g clip-path="url(#clip0_1_86)">
<path d="M10.4776 9.7583C11.9998 8.40778 13.9651 7.66343 16.0001 7.66664C20.6026 7.66664 24.3334 11.3975 24.3334 16C24.3361 17.7032 23.8144 19.366 22.8392 20.7625L20.5834 16H22.6667C22.6668 14.6744 22.2716 13.379 21.5318 12.2791C20.792 11.1792 19.7412 10.3248 18.5134 9.8251C17.2857 9.32537 15.9369 9.20297 14.6393 9.47355C13.3416 9.74412 12.1541 10.3954 11.2284 11.3441L10.4784 9.75914L10.4776 9.7583ZM21.5226 22.2416C20.0003 23.5922 18.0351 24.3365 16.0001 24.3333C11.3976 24.3333 7.66675 20.6025 7.66675 16C7.66675 14.2291 8.21925 12.5875 9.16091 11.2375L11.4167 16H9.33341C9.33339 17.3255 9.72852 18.621 10.4683 19.7208C11.2081 20.8207 12.259 21.6751 13.4867 22.1748C14.7145 22.6746 16.0633 22.797 17.3609 22.5264C18.6585 22.2558 19.8461 21.6046 20.7717 20.6558L21.5217 22.2408L21.5226 22.2416ZM13.0834 17.6666H17.6667C17.7773 17.6666 17.8832 17.6227 17.9614 17.5446C18.0395 17.4665 18.0834 17.3605 18.0834 17.25C18.0834 17.1395 18.0395 17.0335 17.9614 16.9553C17.8832 16.8772 17.7773 16.8333 17.6667 16.8333H14.3334C13.7809 16.8333 13.251 16.6138 12.8603 16.2231C12.4696 15.8324 12.2501 15.3025 12.2501 14.75C12.2501 14.1974 12.4696 13.6675 12.8603 13.2768C13.251 12.8861 13.7809 12.6666 14.3334 12.6666H15.1667V11.8333H16.8334V12.6666H18.9167V14.3333H14.3334C14.2229 14.3333 14.1169 14.3772 14.0388 14.4553C13.9606 14.5335 13.9167 14.6395 13.9167 14.75C13.9167 14.8605 13.9606 14.9665 14.0388 15.0446C14.1169 15.1227 14.2229 15.1666 14.3334 15.1666H17.6667C18.2193 15.1666 18.7492 15.3861 19.1399 15.7768C19.5306 16.1675 19.7501 16.6974 19.7501 17.25C19.7501 17.8025 19.5306 18.3324 19.1399 18.7231C18.7492 19.1138 18.2193 19.3333 17.6667 19.3333H16.8334V20.1666H15.1667V19.3333H13.0834V17.6666Z" fill="#4F4F4F"/>
</g>
<defs>
<clipPath id="clip0_1_86">
<rect width="20" height="20" fill="white" transform="translate(6 6)"/>
</clipPath>
</defs>
</svg>
